# xmcd CD database file
#
# Track frame offsets:
#	150
#	18675
#	39216
#	61708
#	68103
#	82554
#	100885
#	119773
#	144608
#	166682
#	174727
#
# Disc length: 2721 seconds
#
# Revision: 0
# Processed by: cddbd v1.5.1PL0 Copyright (c) Steve Scherf et al.
# Submitted via: CDex 1.40Release
#
DISCID=870a9f0b
DTITLE=Jacob Clyde - Blues Guitar Deluxe
DYEAR=2004
DGENRE=Blues
TTITLE0=At The End Of The Line
TTITLE1=Princess
TTITLE2=To Spend Time With You
TTITLE3=Double J
TTITLE4=Crocodile Cryin'
TTITLE5=Movin' Day
TTITLE6=I'm Alright Now
TTITLE7=Woogie Boogie Time
TTITLE8=She Don't Care For Me
TTITLE9=Thinking Through
TTITLE10=Walk A Mile In My Blues
EXTD=YEAR: 2004 ID3G: 0
EXTT0=
EXTT1=
EXTT2=
EXTT3=
EXTT4=
EXTT5=
EXTT6=
EXTT7=
EXTT8=
EXTT9=
EXTT10=
PLAYORDER=
